<svg xmlns="http://www.w3.org/2000/svg" width="1125" height="675" viewBox="0 0 1125 675" fill="none">
  <rect width="1125" height="675" fill="#F8F3EA"/>
  <g transform="translate(85 85) scale(0.29296875)">
  <rect width="512" height="512" rx="118" fill="#153F2B"/>
  <rect x="128" y="208" width="76" height="168" rx="22" fill="#F8F3EA"/>
  <rect x="218" y="136" width="76" height="240" rx="22" fill="#F8F3EA"/>
  <rect x="308" y="240" width="76" height="136" rx="22" fill="#F8F3EA"/>
  <rect x="150" y="234" width="24" height="24" rx="7" fill="#153F2B"/>
  <rect x="330" y="266" width="24" height="24" rx="7" fill="#153F2B"/>
  <rect x="240" y="164" width="32" height="32" rx="9" fill="#C8793F"/>
  </g>
  <text x="272" y="188" font-family="Newsreader, Georgia, 'Times New Roman', serif" font-size="84" font-weight="600" fill="#19231C">Society<tspan fill="#153F2B">Flats</tspan></text>
  <text x="88" y="320" font-family="'Hanken Grotesk', 'Helvetica Neue', Arial, sans-serif" font-size="34" font-weight="800" fill="#19231C" letter-spacing="4">NITIN WASSON</text>
  <text x="88" y="368" font-family="'Hanken Grotesk', 'Helvetica Neue', Arial, sans-serif" font-size="28" font-weight="600" fill="#667064">Founder</text>
  <text x="88" y="480" font-family="'Hanken Grotesk', 'Helvetica Neue', Arial, sans-serif" font-size="32" font-weight="700" fill="#19231C">+91 99118 86222</text>
  <text x="88" y="530" font-family="'Hanken Grotesk', 'Helvetica Neue', Arial, sans-serif" font-size="30" font-weight="600" fill="#667064">hello@societyflats.com</text>
  <text x="88" y="580" font-family="'Hanken Grotesk', 'Helvetica Neue', Arial, sans-serif" font-size="30" font-weight="700" fill="#9A552E">societyflats.com</text>
  <g transform="translate(830 400) scale(1)" opacity="0.92">
    <rect x="0" y="72" width="52" height="150" rx="16" fill="#DFDED6"/>
    <rect x="62" y="24" width="52" height="198" rx="16" fill="#DFDED6"/>
    <rect x="124" y="96" width="52" height="126" rx="16" fill="#DFDED6"/>
    <rect x="186" y="48" width="52" height="174" rx="16" fill="#DFDED6"/>
    <rect x="77" y="44" width="22" height="22" rx="6" fill="#C8793F"/>
  </g>
</svg>
