<svg xmlns="http://www.w3.org/2000/svg" width="2480" height="3508" viewBox="0 0 2480 3508" fill="none">
  <rect width="2480" height="3508" fill="#FFFFFF"/>
  <rect width="2480" height="24" fill="#233B6E"/>
  <g transform="translate(180 140) scale(0.33203125)">
  <rect width="512" height="512" rx="118" fill="#233B6E"/>
  <rect x="110" y="110" width="76" height="76" rx="20" fill="#F8F3EA"/>
  <rect x="218" y="110" width="76" height="76" rx="20" fill="#F8F3EA"/>
  <rect x="326" y="110" width="76" height="76" rx="20" fill="#F8F3EA"/>
  <rect x="110" y="218" width="76" height="76" rx="20" fill="#F8F3EA"/>
  <rect x="218" y="218" width="76" height="76" rx="20" fill="#F8F3EA"/>
  <rect x="326" y="218" width="76" height="76" rx="20" fill="#B08A3E"/>
  <rect x="110" y="326" width="76" height="76" rx="20" fill="#F8F3EA"/>
  <rect x="218" y="326" width="76" height="110" rx="20" fill="#F8F3EA"/>
  <rect x="326" y="326" width="76" height="76" rx="20" fill="#F8F3EA"/>
  </g>
  <text x="392" y="262" font-family="Newsreader, Georgia, 'Times New Roman', serif" font-size="96" font-weight="600" fill="#1C2434">Society<tspan fill="#233B6E">Flats</tspan></text>
  <text x="184" y="356" font-family="'Hanken Grotesk', 'Helvetica Neue', Arial, sans-serif" font-size="30" font-weight="700" fill="#8C6E2F" letter-spacing="5">VERIFIED SOCIETY HOMES IN GURGAON</text>
  <line x1="180" y1="420" x2="2300" y2="420" stroke="#E3DFD3" stroke-width="3"/>
  <text x="180" y="3330" font-family="'Hanken Grotesk', 'Helvetica Neue', Arial, sans-serif" font-size="34" font-weight="600" fill="#6A7080">societyflats.com   ·   +91 99118 86222   ·   Gurugram, Haryana, India</text>
  <line x1="180" y1="3260" x2="2300" y2="3260" stroke="#E3DFD3" stroke-width="3"/>
  <g transform="translate(2020 3300) scale(1)" opacity="0.92">
    <rect x="0" y="0" width="42" height="42" rx="12" fill="#E3DFD3"/>
    <rect x="62" y="0" width="42" height="42" rx="12" fill="#E3DFD3"/>
    <rect x="124" y="0" width="42" height="42" rx="12" fill="#E3DFD3"/>
    <rect x="186" y="0" width="42" height="42" rx="12" fill="#E3DFD3"/>
    <rect x="248" y="0" width="42" height="42" rx="12" fill="#E3DFD3"/>
    <rect x="0" y="62" width="42" height="42" rx="12" fill="#E3DFD3"/>
    <rect x="62" y="62" width="42" height="42" rx="12" fill="#E3DFD3"/>
    <rect x="124" y="62" width="42" height="42" rx="12" fill="#E3DFD3"/>
    <rect x="186" y="62" width="42" height="42" rx="12" fill="#B08A3E"/>
    <rect x="248" y="62" width="42" height="42" rx="12" fill="#E3DFD3"/>
    <rect x="0" y="124" width="42" height="42" rx="12" fill="#E3DFD3"/>
    <rect x="62" y="124" width="42" height="42" rx="12" fill="#E3DFD3"/>
    <rect x="124" y="124" width="42" height="42" rx="12" fill="#E3DFD3"/>
    <rect x="186" y="124" width="42" height="42" rx="12" fill="#E3DFD3"/>
    <rect x="248" y="124" width="42" height="42" rx="12" fill="#E3DFD3"/>
  </g>
</svg>
