<svg xmlns="http://www.w3.org/2000/svg" width="1640" height="624" viewBox="0 0 1640 624" fill="none">
  <defs><linearGradient id="fbsky" x1="0" y1="0" x2="0" y2="1"><stop offset="0" stop-color="#101B38"/><stop offset="1" stop-color="#233B6E"/></linearGradient></defs>
  <rect width="1640" height="624" fill="url(#fbsky)"/>
  <rect x="1064" y="236" width="120" height="420" rx="12" fill="#1E2F5C"/>
  <rect x="1560" y="300" width="120" height="360" rx="12" fill="#1E2F5C"/>
  <rect x="40" y="470" width="130" height="200" rx="12" fill="#1E2F5C"/>
  <rect x="1120" y="330" width="130" height="334" rx="14" fill="#18254A"/>
  <rect x="1136" y="364" width="26" height="26" rx="7" fill="#2A3C6E"/>
  <rect x="1172" y="364" width="26" height="26" rx="7" fill="#2A3C6E"/>
  <rect x="1208" y="364" width="26" height="26" rx="7" fill="#2A3C6E"/>
  <rect x="1136" y="400" width="26" height="26" rx="7" fill="#F3EBDA"/>
  <rect x="1172" y="400" width="26" height="26" rx="7" fill="#2A3C6E"/>
  <rect x="1208" y="400" width="26" height="26" rx="7" fill="#2A3C6E"/>
  <rect x="1136" y="436" width="26" height="26" rx="7" fill="#2A3C6E"/>
  <rect x="1172" y="436" width="26" height="26" rx="7" fill="#2A3C6E"/>
  <rect x="1208" y="436" width="26" height="26" rx="7" fill="#2A3C6E"/>
  <rect x="1136" y="472" width="26" height="26" rx="7" fill="#2A3C6E"/>
  <rect x="1172" y="472" width="26" height="26" rx="7" fill="#2A3C6E"/>
  <rect x="1208" y="472" width="26" height="26" rx="7" fill="#2A3C6E"/>
  <rect x="1136" y="508" width="26" height="26" rx="7" fill="#2A3C6E"/>
  <rect x="1172" y="508" width="26" height="26" rx="7" fill="#2A3C6E"/>
  <rect x="1208" y="508" width="26" height="26" rx="7" fill="#F3EBDA"/>
  <rect x="1136" y="544" width="26" height="26" rx="7" fill="#2A3C6E"/>
  <rect x="1172" y="544" width="26" height="26" rx="7" fill="#2A3C6E"/>
  <rect x="1208" y="544" width="26" height="26" rx="7" fill="#2A3C6E"/>
  <rect x="1300" y="240" width="166" height="424" rx="14" fill="#18254A"/>
  <rect x="1316" y="274" width="26" height="26" rx="7" fill="#2A3C6E"/>
  <rect x="1352" y="274" width="26" height="26" rx="7" fill="#2A3C6E"/>
  <rect x="1388" y="274" width="26" height="26" rx="7" fill="#2A3C6E"/>
  <rect x="1424" y="274" width="26" height="26" rx="7" fill="#F3EBDA"/>
  <rect x="1316" y="310" width="26" height="26" rx="7" fill="#2A3C6E"/>
  <rect x="1352" y="310" width="26" height="26" rx="7" fill="#2A3C6E"/>
  <rect x="1388" y="310" width="26" height="26" rx="7" fill="#2A3C6E"/>
  <rect x="1424" y="310" width="26" height="26" rx="7" fill="#2A3C6E"/>
  <rect x="1316" y="346" width="26" height="26" rx="7" fill="#2A3C6E"/>
  <rect x="1352" y="346" width="26" height="26" rx="7" fill="#2A3C6E"/>
  <rect x="1388" y="346" width="26" height="26" rx="7" fill="#B08A3E"/>
  <rect x="1424" y="346" width="26" height="26" rx="7" fill="#2A3C6E"/>
  <rect x="1316" y="382" width="26" height="26" rx="7" fill="#2A3C6E"/>
  <rect x="1352" y="382" width="26" height="26" rx="7" fill="#F3EBDA"/>
  <rect x="1388" y="382" width="26" height="26" rx="7" fill="#2A3C6E"/>
  <rect x="1424" y="382" width="26" height="26" rx="7" fill="#2A3C6E"/>
  <rect x="1316" y="418" width="26" height="26" rx="7" fill="#2A3C6E"/>
  <rect x="1352" y="418" width="26" height="26" rx="7" fill="#2A3C6E"/>
  <rect x="1388" y="418" width="26" height="26" rx="7" fill="#2A3C6E"/>
  <rect x="1424" y="418" width="26" height="26" rx="7" fill="#2A3C6E"/>
  <rect x="1316" y="454" width="26" height="26" rx="7" fill="#2A3C6E"/>
  <rect x="1352" y="454" width="26" height="26" rx="7" fill="#2A3C6E"/>
  <rect x="1388" y="454" width="26" height="26" rx="7" fill="#2A3C6E"/>
  <rect x="1424" y="454" width="26" height="26" rx="7" fill="#2A3C6E"/>
  <rect x="1316" y="490" width="26" height="26" rx="7" fill="#2A3C6E"/>
  <rect x="1352" y="490" width="26" height="26" rx="7" fill="#2A3C6E"/>
  <rect x="1388" y="490" width="26" height="26" rx="7" fill="#2A3C6E"/>
  <rect x="1424" y="490" width="26" height="26" rx="7" fill="#2A3C6E"/>
  <rect x="1316" y="526" width="26" height="26" rx="7" fill="#F3EBDA"/>
  <rect x="1352" y="526" width="26" height="26" rx="7" fill="#2A3C6E"/>
  <rect x="1388" y="526" width="26" height="26" rx="7" fill="#2A3C6E"/>
  <rect x="1424" y="526" width="26" height="26" rx="7" fill="#2A3C6E"/>
  <rect x="1316" y="562" width="26" height="26" rx="7" fill="#2A3C6E"/>
  <rect x="1352" y="562" width="26" height="26" rx="7" fill="#2A3C6E"/>
  <rect x="1388" y="562" width="26" height="26" rx="7" fill="#2A3C6E"/>
  <rect x="1424" y="562" width="26" height="26" rx="7" fill="#2A3C6E"/>
  <rect x="1500" y="400" width="130" height="264" rx="14" fill="#18254A"/>
  <rect x="1516" y="434" width="26" height="26" rx="7" fill="#2A3C6E"/>
  <rect x="1552" y="434" width="26" height="26" rx="7" fill="#2A3C6E"/>
  <rect x="1588" y="434" width="26" height="26" rx="7" fill="#2A3C6E"/>
  <rect x="1516" y="470" width="26" height="26" rx="7" fill="#2A3C6E"/>
  <rect x="1552" y="470" width="26" height="26" rx="7" fill="#2A3C6E"/>
  <rect x="1588" y="470" width="26" height="26" rx="7" fill="#2A3C6E"/>
  <rect x="1516" y="506" width="26" height="26" rx="7" fill="#2A3C6E"/>
  <rect x="1552" y="506" width="26" height="26" rx="7" fill="#F3EBDA"/>
  <rect x="1588" y="506" width="26" height="26" rx="7" fill="#2A3C6E"/>
  <rect x="1516" y="542" width="26" height="26" rx="7" fill="#2A3C6E"/>
  <rect x="1552" y="542" width="26" height="26" rx="7" fill="#2A3C6E"/>
  <rect x="1588" y="542" width="26" height="26" rx="7" fill="#2A3C6E"/>
  <rect x="120" y="512" width="238" height="152" rx="14" fill="#18254A"/>
  <rect x="136" y="546" width="26" height="26" rx="7" fill="#2A3C6E"/>
  <rect x="172" y="546" width="26" height="26" rx="7" fill="#2A3C6E"/>
  <rect x="208" y="546" width="26" height="26" rx="7" fill="#2A3C6E"/>
  <rect x="244" y="546" width="26" height="26" rx="7" fill="#2A3C6E"/>
  <rect x="280" y="546" width="26" height="26" rx="7" fill="#F3EBDA"/>
  <rect x="316" y="546" width="26" height="26" rx="7" fill="#2A3C6E"/>
  <g transform="translate(140 56) scale(0.171875)">
  <rect width="512" height="512" rx="118" fill="#18254A"/>
  <rect x="110" y="110" width="76" height="76" rx="20" fill="#F8F3EA"/>
  <rect x="218" y="110" width="76" height="76" rx="20" fill="#F8F3EA"/>
  <rect x="326" y="110" width="76" height="76" rx="20" fill="#F8F3EA"/>
  <rect x="110" y="218" width="76" height="76" rx="20" fill="#F8F3EA"/>
  <rect x="218" y="218" width="76" height="76" rx="20" fill="#F8F3EA"/>
  <rect x="326" y="218" width="76" height="76" rx="20" fill="#B08A3E"/>
  <rect x="110" y="326" width="76" height="76" rx="20" fill="#F8F3EA"/>
  <rect x="218" y="326" width="76" height="110" rx="20" fill="#F8F3EA"/>
  <rect x="326" y="326" width="76" height="76" rx="20" fill="#F8F3EA"/>
  </g>
  <text x="252" y="122" font-family="Newsreader, Georgia, 'Times New Roman', serif" font-size="56" font-weight="600" fill="#F8F3EA">Society<tspan fill="#DCE6F7">Flats</tspan></text>
  <text x="140" y="298" font-family="Newsreader, Georgia, 'Times New Roman', serif" font-size="74" font-weight="600" fill="#F8F3EA">One of these windows</text>
  <text x="140" y="388" font-family="Newsreader, Georgia, 'Times New Roman', serif" font-size="74" font-weight="600" fill="#F8F3EA">is <tspan font-style="italic" fill="#B08A3E">your next home.</tspan></text>
  <text x="142" y="452" font-family="'Hanken Grotesk', 'Helvetica Neue', Arial, sans-serif" font-size="27" font-weight="600" fill="#DCE6F7">Admin-verified societies · Real availability · No fake listings</text>
  <text x="142" y="496" font-family="'Hanken Grotesk', 'Helvetica Neue', Arial, sans-serif" font-size="27" font-weight="700" fill="#F8F3EA">societyflats.com  ·  +91 99118 86222</text>
</svg>
