<svg xmlns="http://www.w3.org/2000/svg" width="1640" height="624" viewBox="0 0 1640 624" fill="none">
  <rect width="1640" height="624" fill="#1D1D1F"/>
  <g transform="translate(1080 40) scale(0.7365439093484419)">
    <rect x="0" y="0" width="706" height="604" rx="26" fill="#232328"/>
    <rect x="26" y="26" width="150" height="96" rx="14" fill="#3A3A42"/>
    <rect x="20" y="96" width="162" height="12" rx="6" fill="#33333A"/>
    <rect x="194" y="26" width="150" height="96" rx="14" fill="#FFFFFF"/>
    <rect x="188" y="96" width="162" height="12" rx="6" fill="#33333A"/>
    <rect x="362" y="26" width="150" height="96" rx="14" fill="#3A3A42"/>
    <rect x="356" y="96" width="162" height="12" rx="6" fill="#33333A"/>
    <rect x="530" y="26" width="150" height="96" rx="14" fill="#3A3A42"/>
    <rect x="524" y="96" width="162" height="12" rx="6" fill="#33333A"/>
    <rect x="26" y="140" width="150" height="96" rx="14" fill="#3A3A42"/>
    <rect x="20" y="210" width="162" height="12" rx="6" fill="#33333A"/>
    <rect x="194" y="140" width="150" height="96" rx="14" fill="#3A3A42"/>
    <rect x="188" y="210" width="162" height="12" rx="6" fill="#33333A"/>
    <rect x="362" y="140" width="150" height="96" rx="14" fill="#3A3A42"/>
    <rect x="356" y="210" width="162" height="12" rx="6" fill="#33333A"/>
    <rect x="530" y="140" width="150" height="96" rx="14" fill="#FFFFFF"/>
    <rect x="524" y="210" width="162" height="12" rx="6" fill="#33333A"/>
    <rect x="26" y="254" width="150" height="96" rx="14" fill="#FFFFFF"/>
    <rect x="20" y="324" width="162" height="12" rx="6" fill="#33333A"/>
    <rect x="194" y="254" width="150" height="96" rx="14" fill="#3A3A42"/>
    <rect x="188" y="324" width="162" height="12" rx="6" fill="#33333A"/>
    <rect x="362" y="254" width="150" height="96" rx="14" fill="#3A3A42"/>
    <rect x="356" y="324" width="162" height="12" rx="6" fill="#33333A"/>
    <rect x="530" y="254" width="150" height="96" rx="14" fill="#3A3A42"/>
    <rect x="524" y="324" width="162" height="12" rx="6" fill="#33333A"/>
    <rect x="26" y="368" width="150" height="96" rx="14" fill="#3A3A42"/>
    <rect x="20" y="438" width="162" height="12" rx="6" fill="#33333A"/>
    <rect x="194" y="368" width="150" height="96" rx="14" fill="#3A3A42"/>
    <rect x="188" y="438" width="162" height="12" rx="6" fill="#33333A"/>
    <rect x="362" y="368" width="150" height="96" rx="14" fill="#0F7B63"/>
    <rect x="356" y="438" width="162" height="12" rx="6" fill="#33333A"/>
    <rect x="530" y="368" width="150" height="96" rx="14" fill="#3A3A42"/>
    <rect x="524" y="438" width="162" height="12" rx="6" fill="#33333A"/>
    <rect x="26" y="482" width="150" height="96" rx="14" fill="#3A3A42"/>
    <rect x="20" y="552" width="162" height="12" rx="6" fill="#33333A"/>
    <rect x="194" y="482" width="150" height="96" rx="14" fill="#3A3A42"/>
    <rect x="188" y="552" width="162" height="12" rx="6" fill="#33333A"/>
    <rect x="362" y="482" width="150" height="96" rx="14" fill="#FFFFFF"/>
    <rect x="356" y="552" width="162" height="12" rx="6" fill="#33333A"/>
    <rect x="530" y="482" width="150" height="96" rx="14" fill="#3A3A42"/>
    <rect x="524" y="552" width="162" height="12" rx="6" fill="#33333A"/>
  </g>
  <g transform="translate(120 60) scale(0.1640625)">
  <rect width="512" height="512" rx="118" fill="#252528"/>
  <rect x="110" y="110" width="76" height="76" rx="20" fill="#FFFFFF"/>
  <rect x="218" y="110" width="76" height="76" rx="20" fill="#FFFFFF"/>
  <rect x="326" y="110" width="76" height="76" rx="20" fill="#FFFFFF"/>
  <rect x="110" y="218" width="76" height="76" rx="20" fill="#FFFFFF"/>
  <rect x="218" y="218" width="76" height="76" rx="20" fill="#FFFFFF"/>
  <rect x="326" y="218" width="76" height="76" rx="20" fill="#0F7B63"/>
  <rect x="110" y="326" width="76" height="76" rx="20" fill="#FFFFFF"/>
  <rect x="218" y="326" width="76" height="110" rx="20" fill="#FFFFFF"/>
  <rect x="326" y="326" width="76" height="76" rx="20" fill="#FFFFFF"/>
  </g>
  <text x="230" y="126" font-family="'Hanken Grotesk', 'Helvetica Neue', Arial, sans-serif" font-size="54" font-weight="700" fill="#FFFFFF" letter-spacing="-1.3">Society<tspan fill="#3BAE93">Flats</tspan></text>
  <text x="120" y="300" font-family="'Hanken Grotesk', 'Helvetica Neue', Arial, sans-serif" font-size="76" font-weight="700" fill="#FFFFFF" letter-spacing="-2">Choose the society.</text>
  <text x="120" y="388" font-family="'Hanken Grotesk', 'Helvetica Neue', Arial, sans-serif" font-size="76" font-weight="700" fill="#3BAE93" letter-spacing="-2">Then choose the home.</text>
  <text x="122" y="452" font-family="'Hanken Grotesk', 'Helvetica Neue', Arial, sans-serif" font-size="27" font-weight="600" fill="#C7C7CD">Verified societies · Real availability · No fake listings</text>
  <text x="122" y="500" font-family="'Hanken Grotesk', 'Helvetica Neue', Arial, sans-serif" font-size="27" font-weight="700" fill="#FFFFFF">societyflats.com  ·  +91 99118 86222</text>
</svg>
