<svg xmlns="http://www.w3.org/2000/svg" width="1128" height="191" viewBox="0 0 1128 191" fill="none">
  <rect width="1128" height="191" fill="#153F2B"/>
  <g transform="translate(920 30) scale(0.72)" opacity="0.92">
    <rect x="0" y="72" width="52" height="150" rx="16" fill="#0E2F20"/>
    <rect x="62" y="24" width="52" height="198" rx="16" fill="#0E2F20"/>
    <rect x="124" y="96" width="52" height="126" rx="16" fill="#0E2F20"/>
    <rect x="186" y="48" width="52" height="174" rx="16" fill="#0E2F20"/>
    <rect x="77" y="44" width="22" height="22" rx="6" fill="#C8793F"/>
  </g>
  <g transform="translate(48 40) scale(0.21484375)">
  <rect width="512" height="512" rx="118" fill="#0E2F20"/>
  <rect x="128" y="208" width="76" height="168" rx="22" fill="#F8F3EA"/>
  <rect x="218" y="136" width="76" height="240" rx="22" fill="#F8F3EA"/>
  <rect x="308" y="240" width="76" height="136" rx="22" fill="#F8F3EA"/>
  <rect x="150" y="234" width="24" height="24" rx="7" fill="#0E2F20"/>
  <rect x="330" y="266" width="24" height="24" rx="7" fill="#0E2F20"/>
  <rect x="240" y="164" width="32" height="32" rx="9" fill="#C8793F"/>
  </g>
  <text x="186" y="112" font-family="Newsreader, Georgia, 'Times New Roman', serif" font-size="58" font-weight="600" fill="#F8F3EA">Society<tspan fill="#E6F4E9">Flats</tspan></text>
  <text x="188" y="156" font-family="'Hanken Grotesk', 'Helvetica Neue', Arial, sans-serif" font-size="24" font-weight="600" fill="#E6F4E9">Verified society homes in Gurgaon</text>
</svg>
