<svg xmlns="http://www.w3.org/2000/svg" width="1128" height="191" viewBox="0 0 1128 191" fill="none">
  <rect width="1128" height="191" fill="#233B6E"/>
  <g transform="translate(920 30) scale(0.72)" opacity="0.92">
    <rect x="0" y="0" width="42" height="42" rx="12" fill="#18254A"/>
    <rect x="62" y="0" width="42" height="42" rx="12" fill="#18254A"/>
    <rect x="124" y="0" width="42" height="42" rx="12" fill="#18254A"/>
    <rect x="186" y="0" width="42" height="42" rx="12" fill="#18254A"/>
    <rect x="248" y="0" width="42" height="42" rx="12" fill="#18254A"/>
    <rect x="0" y="62" width="42" height="42" rx="12" fill="#18254A"/>
    <rect x="62" y="62" width="42" height="42" rx="12" fill="#18254A"/>
    <rect x="124" y="62" width="42" height="42" rx="12" fill="#18254A"/>
    <rect x="186" y="62" width="42" height="42" rx="12" fill="#B08A3E"/>
    <rect x="248" y="62" width="42" height="42" rx="12" fill="#18254A"/>
    <rect x="0" y="124" width="42" height="42" rx="12" fill="#18254A"/>
    <rect x="62" y="124" width="42" height="42" rx="12" fill="#18254A"/>
    <rect x="124" y="124" width="42" height="42" rx="12" fill="#18254A"/>
    <rect x="186" y="124" width="42" height="42" rx="12" fill="#18254A"/>
    <rect x="248" y="124" width="42" height="42" rx="12" fill="#18254A"/>
  </g>
  <g transform="translate(48 40) scale(0.21484375)">
  <rect width="512" height="512" rx="118" fill="#18254A"/>
  <rect x="110" y="110" width="76" height="76" rx="20" fill="#F8F3EA"/>
  <rect x="218" y="110" width="76" height="76" rx="20" fill="#F8F3EA"/>
  <rect x="326" y="110" width="76" height="76" rx="20" fill="#F8F3EA"/>
  <rect x="110" y="218" width="76" height="76" rx="20" fill="#F8F3EA"/>
  <rect x="218" y="218" width="76" height="76" rx="20" fill="#F8F3EA"/>
  <rect x="326" y="218" width="76" height="76" rx="20" fill="#B08A3E"/>
  <rect x="110" y="326" width="76" height="76" rx="20" fill="#F8F3EA"/>
  <rect x="218" y="326" width="76" height="110" rx="20" fill="#F8F3EA"/>
  <rect x="326" y="326" width="76" height="76" rx="20" fill="#F8F3EA"/>
  </g>
  <text x="186" y="112" font-family="Newsreader, Georgia, 'Times New Roman', serif" font-size="58" font-weight="600" fill="#F8F3EA">Society<tspan fill="#DCE6F7">Flats</tspan></text>
  <text x="188" y="156" font-family="'Hanken Grotesk', 'Helvetica Neue', Arial, sans-serif" font-size="24" font-weight="600" fill="#DCE6F7">Verified society homes in Gurgaon</text>
</svg>
