<svg xmlns="http://www.w3.org/2000/svg" width="1584" height="396" viewBox="0 0 1584 396" fill="none">
  <rect width="1584" height="396" fill="#F8F3EA"/>
  <rect x="1130" width="454" height="396" fill="#153F2B"/>
  <g transform="translate(1190 160) scale(1.15)" opacity="0.92">
    <rect x="0" y="72" width="52" height="150" rx="16" fill="#F8F3EA"/>
    <rect x="62" y="24" width="52" height="198" rx="16" fill="#F8F3EA"/>
    <rect x="124" y="96" width="52" height="126" rx="16" fill="#F8F3EA"/>
    <rect x="186" y="48" width="52" height="174" rx="16" fill="#F8F3EA"/>
    <rect x="77" y="44" width="22" height="22" rx="6" fill="#C8793F"/>
  </g>
  <g transform="translate(90 90) scale(0.2109375)">
  <rect width="512" height="512" rx="118" fill="#153F2B"/>
  <rect x="128" y="208" width="76" height="168" rx="22" fill="#F8F3EA"/>
  <rect x="218" y="136" width="76" height="240" rx="22" fill="#F8F3EA"/>
  <rect x="308" y="240" width="76" height="136" rx="22" fill="#F8F3EA"/>
  <rect x="150" y="234" width="24" height="24" rx="7" fill="#153F2B"/>
  <rect x="330" y="266" width="24" height="24" rx="7" fill="#153F2B"/>
  <rect x="240" y="164" width="32" height="32" rx="9" fill="#C8793F"/>
  </g>
  <text x="232" y="168" font-family="Newsreader, Georgia, 'Times New Roman', serif" font-size="64" font-weight="600" fill="#19231C">Society<tspan fill="#153F2B">Flats</tspan></text>
  <text x="92" y="266" font-family="Newsreader, Georgia, 'Times New Roman', serif" font-size="34" font-weight="500" fill="#667064">Building Gurgaon's society-first, verified rental &amp; resale marketplace.</text>
  <text x="92" y="330" font-family="'Hanken Grotesk', 'Helvetica Neue', Arial, sans-serif" font-size="26" font-weight="700" fill="#9A552E">societyflats.com</text>
</svg>
