<svg xmlns="http://www.w3.org/2000/svg" width="1584" height="396" viewBox="0 0 1584 396" fill="none">
  <rect width="1584" height="396" fill="#F8F3EA"/>
  <rect x="1130" width="454" height="396" fill="#233B6E"/>
  <g transform="translate(1190 160) scale(1.15)" opacity="0.92">
    <rect x="0" y="0" width="42" height="42" rx="12" fill="#F8F3EA"/>
    <rect x="62" y="0" width="42" height="42" rx="12" fill="#F8F3EA"/>
    <rect x="124" y="0" width="42" height="42" rx="12" fill="#F8F3EA"/>
    <rect x="186" y="0" width="42" height="42" rx="12" fill="#F8F3EA"/>
    <rect x="248" y="0" width="42" height="42" rx="12" fill="#F8F3EA"/>
    <rect x="0" y="62" width="42" height="42" rx="12" fill="#F8F3EA"/>
    <rect x="62" y="62" width="42" height="42" rx="12" fill="#F8F3EA"/>
    <rect x="124" y="62" width="42" height="42" rx="12" fill="#F8F3EA"/>
    <rect x="186" y="62" width="42" height="42" rx="12" fill="#B08A3E"/>
    <rect x="248" y="62" width="42" height="42" rx="12" fill="#F8F3EA"/>
    <rect x="0" y="124" width="42" height="42" rx="12" fill="#F8F3EA"/>
    <rect x="62" y="124" width="42" height="42" rx="12" fill="#F8F3EA"/>
    <rect x="124" y="124" width="42" height="42" rx="12" fill="#F8F3EA"/>
    <rect x="186" y="124" width="42" height="42" rx="12" fill="#F8F3EA"/>
    <rect x="248" y="124" width="42" height="42" rx="12" fill="#F8F3EA"/>
  </g>
  <g transform="translate(90 90) scale(0.2109375)">
  <rect width="512" height="512" rx="118" fill="#233B6E"/>
  <rect x="110" y="110" width="76" height="76" rx="20" fill="#F8F3EA"/>
  <rect x="218" y="110" width="76" height="76" rx="20" fill="#F8F3EA"/>
  <rect x="326" y="110" width="76" height="76" rx="20" fill="#F8F3EA"/>
  <rect x="110" y="218" width="76" height="76" rx="20" fill="#F8F3EA"/>
  <rect x="218" y="218" width="76" height="76" rx="20" fill="#F8F3EA"/>
  <rect x="326" y="218" width="76" height="76" rx="20" fill="#B08A3E"/>
  <rect x="110" y="326" width="76" height="76" rx="20" fill="#F8F3EA"/>
  <rect x="218" y="326" width="76" height="110" rx="20" fill="#F8F3EA"/>
  <rect x="326" y="326" width="76" height="76" rx="20" fill="#F8F3EA"/>
  </g>
  <text x="232" y="168" font-family="Newsreader, Georgia, 'Times New Roman', serif" font-size="64" font-weight="600" fill="#1C2434">Society<tspan fill="#233B6E">Flats</tspan></text>
  <text x="92" y="266" font-family="Newsreader, Georgia, 'Times New Roman', serif" font-size="34" font-weight="500" fill="#6A7080">Building Gurgaon's society-first, verified rental &amp; resale marketplace.</text>
  <text x="92" y="330" font-family="'Hanken Grotesk', 'Helvetica Neue', Arial, sans-serif" font-size="26" font-weight="700" fill="#8C6E2F">societyflats.com</text>
</svg>
