<svg xmlns="http://www.w3.org/2000/svg" width="1200" height="630" viewBox="0 0 1200 630" fill="none">
  <rect width="1200" height="630" fill="#F8F3EA"/>
  <rect x="840" width="360" height="630" fill="#233B6E"/>
  <g transform="translate(880 340) scale(1.15)" opacity="0.92">
    <rect x="0" y="0" width="42" height="42" rx="12" fill="#F8F3EA"/>
    <rect x="62" y="0" width="42" height="42" rx="12" fill="#F8F3EA"/>
    <rect x="124" y="0" width="42" height="42" rx="12" fill="#F8F3EA"/>
    <rect x="186" y="0" width="42" height="42" rx="12" fill="#F8F3EA"/>
    <rect x="248" y="0" width="42" height="42" rx="12" fill="#F8F3EA"/>
    <rect x="0" y="62" width="42" height="42" rx="12" fill="#F8F3EA"/>
    <rect x="62" y="62" width="42" height="42" rx="12" fill="#F8F3EA"/>
    <rect x="124" y="62" width="42" height="42" rx="12" fill="#F8F3EA"/>
    <rect x="186" y="62" width="42" height="42" rx="12" fill="#B08A3E"/>
    <rect x="248" y="62" width="42" height="42" rx="12" fill="#F8F3EA"/>
    <rect x="0" y="124" width="42" height="42" rx="12" fill="#F8F3EA"/>
    <rect x="62" y="124" width="42" height="42" rx="12" fill="#F8F3EA"/>
    <rect x="124" y="124" width="42" height="42" rx="12" fill="#F8F3EA"/>
    <rect x="186" y="124" width="42" height="42" rx="12" fill="#F8F3EA"/>
    <rect x="248" y="124" width="42" height="42" rx="12" fill="#F8F3EA"/>
  </g>
  <g transform="translate(72 64) scale(0.234375)">
  <rect width="512" height="512" rx="118" fill="#233B6E"/>
  <rect x="110" y="110" width="76" height="76" rx="20" fill="#F8F3EA"/>
  <rect x="218" y="110" width="76" height="76" rx="20" fill="#F8F3EA"/>
  <rect x="326" y="110" width="76" height="76" rx="20" fill="#F8F3EA"/>
  <rect x="110" y="218" width="76" height="76" rx="20" fill="#F8F3EA"/>
  <rect x="218" y="218" width="76" height="76" rx="20" fill="#F8F3EA"/>
  <rect x="326" y="218" width="76" height="76" rx="20" fill="#B08A3E"/>
  <rect x="110" y="326" width="76" height="76" rx="20" fill="#F8F3EA"/>
  <rect x="218" y="326" width="76" height="110" rx="20" fill="#F8F3EA"/>
  <rect x="326" y="326" width="76" height="76" rx="20" fill="#F8F3EA"/>
  </g>
  <text x="72" y="308" font-family="Newsreader, Georgia, 'Times New Roman', serif" font-size="64" font-weight="600" fill="#1C2434">Verified society homes</text>
  <text x="72" y="386" font-family="Newsreader, Georgia, 'Times New Roman', serif" font-size="64" font-weight="600" fill="#233B6E">in Gurgaon.</text>
  <text x="72" y="470" font-family="'Hanken Grotesk', 'Helvetica Neue', Arial, sans-serif" font-size="26" font-weight="600" fill="#6A7080">Society-first search · Admin-verified data · Real availability</text>
  <text x="72" y="560" font-family="'Hanken Grotesk', 'Helvetica Neue', Arial, sans-serif" font-size="28" font-weight="700" fill="#8C6E2F">societyflats.com   ·   +91 99118 86222</text>
</svg>
