<svg xmlns="http://www.w3.org/2000/svg" width="1200" height="630" viewBox="0 0 1200 630" fill="none">
  <rect width="1200" height="630" fill="#F8F3EA"/>
  <rect x="840" width="360" height="630" fill="#153F2B"/>
  <g transform="translate(880 340) scale(1.15)" opacity="0.92">
    <rect x="0" y="72" width="52" height="150" rx="16" fill="#F8F3EA"/>
    <rect x="62" y="24" width="52" height="198" rx="16" fill="#F8F3EA"/>
    <rect x="124" y="96" width="52" height="126" rx="16" fill="#F8F3EA"/>
    <rect x="186" y="48" width="52" height="174" rx="16" fill="#F8F3EA"/>
    <rect x="77" y="44" width="22" height="22" rx="6" fill="#C8793F"/>
  </g>
  <g transform="translate(72 64) scale(0.234375)">
  <rect width="512" height="512" rx="118" fill="#153F2B"/>
  <rect x="128" y="208" width="76" height="168" rx="22" fill="#F8F3EA"/>
  <rect x="218" y="136" width="76" height="240" rx="22" fill="#F8F3EA"/>
  <rect x="308" y="240" width="76" height="136" rx="22" fill="#F8F3EA"/>
  <rect x="150" y="234" width="24" height="24" rx="7" fill="#153F2B"/>
  <rect x="330" y="266" width="24" height="24" rx="7" fill="#153F2B"/>
  <rect x="240" y="164" width="32" height="32" rx="9" fill="#C8793F"/>
  </g>
  <text x="72" y="308" font-family="Newsreader, Georgia, 'Times New Roman', serif" font-size="64" font-weight="600" fill="#19231C">Verified society homes</text>
  <text x="72" y="386" font-family="Newsreader, Georgia, 'Times New Roman', serif" font-size="64" font-weight="600" fill="#153F2B">in Gurgaon.</text>
  <text x="72" y="470" font-family="'Hanken Grotesk', 'Helvetica Neue', Arial, sans-serif" font-size="26" font-weight="600" fill="#667064">Society-first search · Admin-verified data · Real availability</text>
  <text x="72" y="560" font-family="'Hanken Grotesk', 'Helvetica Neue', Arial, sans-serif" font-size="28" font-weight="700" fill="#9A552E">societyflats.com   ·   +91 99118 86222</text>
</svg>
