<svg xmlns="http://www.w3.org/2000/svg" width="1500" height="500" viewBox="0 0 1500 500" fill="none">
  <rect width="1500" height="500" fill="#F8F3EA"/>
  <rect y="428" width="1500" height="72" fill="#233B6E"/>
  <g transform="translate(1200 150) scale(1.15)" opacity="0.92">
    <rect x="0" y="0" width="42" height="42" rx="12" fill="#233B6E"/>
    <rect x="62" y="0" width="42" height="42" rx="12" fill="#233B6E"/>
    <rect x="124" y="0" width="42" height="42" rx="12" fill="#233B6E"/>
    <rect x="186" y="0" width="42" height="42" rx="12" fill="#233B6E"/>
    <rect x="248" y="0" width="42" height="42" rx="12" fill="#233B6E"/>
    <rect x="0" y="62" width="42" height="42" rx="12" fill="#233B6E"/>
    <rect x="62" y="62" width="42" height="42" rx="12" fill="#233B6E"/>
    <rect x="124" y="62" width="42" height="42" rx="12" fill="#233B6E"/>
    <rect x="186" y="62" width="42" height="42" rx="12" fill="#B08A3E"/>
    <rect x="248" y="62" width="42" height="42" rx="12" fill="#233B6E"/>
    <rect x="0" y="124" width="42" height="42" rx="12" fill="#233B6E"/>
    <rect x="62" y="124" width="42" height="42" rx="12" fill="#233B6E"/>
    <rect x="124" y="124" width="42" height="42" rx="12" fill="#233B6E"/>
    <rect x="186" y="124" width="42" height="42" rx="12" fill="#233B6E"/>
    <rect x="248" y="124" width="42" height="42" rx="12" fill="#233B6E"/>
  </g>
  <g transform="translate(96 110) scale(0.234375)">
  <rect width="512" height="512" rx="118" fill="#233B6E"/>
  <rect x="110" y="110" width="76" height="76" rx="20" fill="#F8F3EA"/>
  <rect x="218" y="110" width="76" height="76" rx="20" fill="#F8F3EA"/>
  <rect x="326" y="110" width="76" height="76" rx="20" fill="#F8F3EA"/>
  <rect x="110" y="218" width="76" height="76" rx="20" fill="#F8F3EA"/>
  <rect x="218" y="218" width="76" height="76" rx="20" fill="#F8F3EA"/>
  <rect x="326" y="218" width="76" height="76" rx="20" fill="#B08A3E"/>
  <rect x="110" y="326" width="76" height="76" rx="20" fill="#F8F3EA"/>
  <rect x="218" y="326" width="76" height="110" rx="20" fill="#F8F3EA"/>
  <rect x="326" y="326" width="76" height="76" rx="20" fill="#F8F3EA"/>
  </g>
  <text x="252" y="196" font-family="Newsreader, Georgia, 'Times New Roman', serif" font-size="80" font-weight="600" fill="#1C2434">Society<tspan fill="#233B6E">Flats</tspan></text>
  <text x="98" y="300" font-family="'Hanken Grotesk', 'Helvetica Neue', Arial, sans-serif" font-size="30" font-weight="700" fill="#8C6E2F" letter-spacing="6">VERIFIED SOCIETY HOMES IN GURGAON</text>
  <text x="96" y="476" font-family="'Hanken Grotesk', 'Helvetica Neue', Arial, sans-serif" font-size="28" font-weight="700" fill="#F8F3EA">societyflats.com</text>
</svg>
