<svg xmlns="http://www.w3.org/2000/svg" width="2560" height="1440" viewBox="0 0 2560 1440" fill="none">
  <rect width="2560" height="1440" fill="#153F2B"/>
  <g transform="translate(180 900) scale(2.4)" opacity="0.92">
    <rect x="0" y="72" width="52" height="150" rx="16" fill="#0E2F20"/>
    <rect x="62" y="24" width="52" height="198" rx="16" fill="#0E2F20"/>
    <rect x="124" y="96" width="52" height="126" rx="16" fill="#0E2F20"/>
    <rect x="186" y="48" width="52" height="174" rx="16" fill="#0E2F20"/>
    <rect x="77" y="44" width="22" height="22" rx="6" fill="#0E2F20"/>
  </g>
  <g transform="translate(1900 880) scale(2.4)" opacity="0.92">
    <rect x="0" y="72" width="52" height="150" rx="16" fill="#0E2F20"/>
    <rect x="62" y="24" width="52" height="198" rx="16" fill="#0E2F20"/>
    <rect x="124" y="96" width="52" height="126" rx="16" fill="#0E2F20"/>
    <rect x="186" y="48" width="52" height="174" rx="16" fill="#0E2F20"/>
    <rect x="77" y="44" width="22" height="22" rx="6" fill="#C8793F"/>
  </g>
  <g transform="translate(1120 430) scale(0.3125)">
  <rect width="512" height="512" rx="118" fill="#0E2F20"/>
  <rect x="128" y="208" width="76" height="168" rx="22" fill="#F8F3EA"/>
  <rect x="218" y="136" width="76" height="240" rx="22" fill="#F8F3EA"/>
  <rect x="308" y="240" width="76" height="136" rx="22" fill="#F8F3EA"/>
  <rect x="150" y="234" width="24" height="24" rx="7" fill="#0E2F20"/>
  <rect x="330" y="266" width="24" height="24" rx="7" fill="#0E2F20"/>
  <rect x="240" y="164" width="32" height="32" rx="9" fill="#C8793F"/>
  </g>
  <text x="1280" y="700" font-family="Newsreader, Georgia, 'Times New Roman', serif" font-size="96" font-weight="600" text-anchor="middle" fill="#F8F3EA">Society<tspan fill="#E6F4E9">Flats</tspan></text>
  <text x="1280" y="780" font-family="'Hanken Grotesk', 'Helvetica Neue', Arial, sans-serif" font-size="30" font-weight="700" fill="#E6F4E9" letter-spacing="6" text-anchor="middle">VERIFIED SOCIETY HOMES IN GURGAON</text>
  <text x="1280" y="850" font-family="'Hanken Grotesk', 'Helvetica Neue', Arial, sans-serif" font-size="30" font-weight="600" fill="#F8F3EA" text-anchor="middle">societyflats.com</text>
</svg>
