<svg xmlns="http://www.w3.org/2000/svg" width="1400" height="900" viewBox="0 0 1400 900" role="img" aria-labelledby="title desc">
  <title id="title">SocietyFlats property photo under verification</title>
  <desc id="desc">A generic apartment interior placeholder with SocietyFlats watermark and photos under verification message.</desc>
  <defs>
    <linearGradient id="wall" x1="0" x2="1" y1="0" y2="1">
      <stop offset="0" stop-color="#f8f3ea"/>
      <stop offset="0.55" stop-color="#eef4ff"/>
      <stop offset="1" stop-color="#e6efe9"/>
    </linearGradient>
    <linearGradient id="window" x1="0" x2="1">
      <stop offset="0" stop-color="#dbeafe"/>
      <stop offset="1" stop-color="#bfdbfe"/>
    </linearGradient>
    <filter id="softShadow" x="-20%" y="-20%" width="140%" height="140%">
      <feDropShadow dx="0" dy="18" stdDeviation="24" flood-color="#0f172a" flood-opacity="0.16"/>
    </filter>
    <pattern id="watermark" width="260" height="140" patternUnits="userSpaceOnUse" patternTransform="rotate(-28)">
      <text x="0" y="72" font-family="Inter, Arial, sans-serif" font-size="26" font-weight="800" fill="#1e3a8a" opacity="0.055">SocietyFlats</text>
    </pattern>
  </defs>
  <rect width="1400" height="900" fill="url(#wall)"/>
  <rect width="1400" height="900" fill="url(#watermark)"/>
  <rect x="0" y="660" width="1400" height="240" fill="#d7c6ad"/>
  <path d="M0 662h1400" stroke="#c2ad8f" stroke-width="4"/>
  <g filter="url(#softShadow)">
    <rect x="105" y="95" width="420" height="330" rx="28" fill="#ffffff" opacity="0.9"/>
    <rect x="135" y="125" width="360" height="270" rx="18" fill="url(#window)"/>
    <path d="M315 126v268M136 260h358" stroke="#ffffff" stroke-width="12" opacity="0.9"/>
    <circle cx="433" cy="172" r="38" fill="#fde68a" opacity="0.85"/>
    <path d="M140 368c80-95 140-110 195-36 34 46 69 47 156-29v93H140z" fill="#93c5fd" opacity="0.8"/>
  </g>
  <g filter="url(#softShadow)">
    <rect x="730" y="420" width="365" height="145" rx="26" fill="#f8fafc"/>
    <rect x="762" y="370" width="305" height="115" rx="20" fill="#d8b48a"/>
    <rect x="790" y="397" width="250" height="58" rx="18" fill="#fdf7ed"/>
    <rect x="690" y="548" width="455" height="70" rx="24" fill="#c0875a"/>
    <rect x="730" y="608" width="58" height="84" rx="18" fill="#9a6a46"/>
    <rect x="1045" y="608" width="58" height="84" rx="18" fill="#9a6a46"/>
  </g>
  <g filter="url(#softShadow)">
    <rect x="175" y="575" width="315" height="72" rx="18" fill="#bf8f68"/>
    <rect x="210" y="500" width="250" height="94" rx="22" fill="#f8fafc"/>
    <rect x="155" y="540" width="355" height="88" rx="28" fill="#d8b48a"/>
    <rect x="192" y="622" width="46" height="70" rx="14" fill="#8b5f3d"/>
    <rect x="430" y="622" width="46" height="70" rx="14" fill="#8b5f3d"/>
  </g>
  <g transform="translate(870 130)">
    <rect x="0" y="0" width="390" height="158" rx="28" fill="#ffffff" opacity="0.88" filter="url(#softShadow)"/>
    <text x="32" y="54" font-family="Inter, Arial, sans-serif" font-size="28" font-weight="900" fill="#172554">Photos under verification</text>
    <text x="32" y="92" font-family="Inter, Arial, sans-serif" font-size="18" font-weight="600" fill="#475569">Real property photos will appear after</text>
    <text x="32" y="120" font-family="Inter, Arial, sans-serif" font-size="18" font-weight="600" fill="#475569">SocietyFlats review.</text>
  </g>
  <g transform="translate(75 75)">
    <rect x="0" y="0" width="245" height="58" rx="29" fill="#ffffff" opacity="0.92"/>
    <rect x="15" y="12" width="34" height="34" rx="10" fill="#123c32"/>
    <path d="M24 32l8-8 8 8v10H24z" fill="none" stroke="#f59e0b" stroke-width="2.5" stroke-linejoin="round"/>
    <text x="62" y="37" font-family="Georgia, 'Times New Roman', serif" font-size="25" font-weight="700" fill="#123c32">SocietyFlats</text>
  </g>
</svg>
